<?xml version="1.0" encoding="UTF-8"?>
<svg id="Layer_2" data-name="Layer 2" xmlns="http://www.w3.org/2000/svg" viewBox="0 0 24 30">
  <defs>
    <style>
      .cls-1 {
        fill: #120224;
      }
    </style>
  </defs>
  <g id="Layer_1-2" data-name="Layer 1">
    <path class="cls-1" d="M24,21h-1v-1h-1v-1h-1v-4h-1v-3h-1v-4h1v-1h1v-1h1V0h-14v1h-2v1h-2v1h-2v1H0v26h22v-5h1v-1h1v-3ZM13,21v-2h1v2h-1ZM21,20v1h-4v-1h2v-1h1v1h1ZM17,12v3h1v3h-4v-1h-1v1h-3v-3h-1v-3h-1v-2h8v2h1ZM10,1h11v4h-11V1Z"/>
  </g>
</svg>