<?xml version="1.0" encoding="UTF-8"?>
<svg id="Layer_2" data-name="Layer 2" xmlns="http://www.w3.org/2000/svg" viewBox="0 0 28 28">
  <defs>
    <style>
      .cls-1 {
        fill: #120224;
      }
    </style>
  </defs>
  <g id="Layer_1-2" data-name="Layer 1">
    <g>
      <polygon class="cls-1" points="5 10 6 10 6 11 22 11 22 10 23 10 23 8 5 8 5 10"/>
      <path class="cls-1" d="M9,17h-2v-1h-1v4h4v-4h-1v1ZM7,19v-1h2v1h-2Z"/>
      <polygon class="cls-1" points="16 19 12 19 12 16 11 16 11 19 11 20 12 20 16 20 17 20 17 19 17 16 16 16 16 19"/>
      <rect class="cls-1" x="7" y="15" width="2" height="1"/>
      <polygon class="cls-1" points="21 15 19 15 19 16 18 16 18 19 18 20 19 20 21 20 22 20 22 19 22 16 21 16 21 15"/>
      <rect class="cls-1" x="12" y="15" width="4" height="1"/>
      <path class="cls-1" d="M25,3h-1V1h2V0H2v1h2v2h-1v1h22v-1ZM5,3V1h18v2H5Z"/>
      <rect class="cls-1" x="2" y="4" width="1" height="18"/>
      <rect class="cls-1" y="2" width="1" height="24"/>
      <rect class="cls-1" x="27" y="2" width="1" height="24"/>
      <rect class="cls-1" x="25" y="4" width="1" height="18"/>
      <path class="cls-1" d="M24,23h1v-1H3v1h1v4h-2v1h24v-1h-2v-4ZM5,27v-4h18v4H5Z"/>
      <rect class="cls-1" x="1" y="1" width="1" height="1"/>
      <rect class="cls-1" x="1" y="26" width="1" height="1" transform="translate(-.17 .01) rotate(-.36)"/>
      <rect class="cls-1" x="26" y="1" width="1" height="1" transform="translate(24.69 27.98) rotate(-89.33)"/>
      <rect class="cls-1" x="26" y="26" width="1" height="1" transform="translate(-.31 52.69) rotate(-89.33)"/>
      <rect class="cls-1" x="6" y="25" width="4" height="1"/>
      <rect class="cls-1" x="20" y="25" width="2" height="1"/>
    </g>
  </g>
</svg>