<?xml version="1.0" encoding="UTF-8"?>
<svg id="Layer_2" data-name="Layer 2" xmlns="http://www.w3.org/2000/svg" viewBox="0 0 32 32">
  <defs>
    <style>
      .cls-1 {
        fill: #120224;
      }
    </style>
  </defs>
  <g id="Layer_1-2" data-name="Layer 1">
    <g>
      <rect class="cls-1" x="15" y="23" width="1" height="1"/>
      <rect class="cls-1" x="17" y="23" width="1" height="1"/>
      <rect class="cls-1" x="20" y="22" width="1" height="1"/>
      <rect class="cls-1" x="12" y="22" width="1" height="1"/>
      <rect class="cls-1" x="11" y="16" width="1" height="1"/>
      <rect class="cls-1" x="15" y="13" width="1" height="1"/>
      <rect class="cls-1" x="17" y="13" width="1" height="1"/>
      <rect class="cls-1" x="17" y="11" width="1" height="1"/>
      <rect class="cls-1" x="15" y="11" width="1" height="1"/>
      <rect class="cls-1" x="21" y="16" width="1" height="1"/>
      <rect class="cls-1" x="12" y="15" width="9" height="1"/>
      <rect class="cls-1" x="23" y="2" width="1" height="1"/>
      <rect class="cls-1" x="24" y="1" width="2" height="1"/>
      <rect class="cls-1" x="26" y="2" width="1" height="1"/>
      <rect class="cls-1" x="27" y="3" width="1" height="1"/>
      <rect class="cls-1" x="23" y="7" width="1" height="1"/>
      <path class="cls-1" d="M31,10v-1h-1v-2h-1v-3h-1v3h-1v1h-3v1h1v1h1v1h1v1h-2v1h-1v-2h-1v2h-1v-2h1v-1h-1v-1h-1v-1h-2v-1h-5v1h-2v1h-1v1h-1v1h1v2h-1v-2h-1v3h-1v-1h-2v-2h1v-1h1v-1h1v-1h1v-2h-1v1h-1v1h-1v1h-1v-1h1v-1h1v-2h1v-1h1v-1h-1v-1h-1v-1h-2V0h-3v1h2v1h2v1h1v1h-1v-1h-2v-1h-1v2h2v1h1v1h-1v1h-1v1h-1v-1h-1v-1h1v-2h-1v1h-1v1h-1v1h1v1h1v1h2v1h-2v-1h-1v3h-1v3h1v1h1v1h1v1h1v1h1v1h1v1h1v3h-1v1h-1v1h-1v1h-1v1h1v1h2v1h1v-1h2v1h1v-2h2v-1h7v1h2v2h1v-1h2v1h1v-1h2v-1h1v-1h-1v-1h-1v-1h-1v-1h-1v-3h1v-2h1v-1h1v-1h1v-1h1v-1h1v-1h1v-4h-1ZM23,23h-1v1h-4v1h3v1h-9v-1h3v-1h-4v-1h-1v-2h1v-1h5v3h1v-3h5v1h1v2ZM23,16v1h-1v1h-1v1h-9v-1h-1v-1h-1v-2h1v-1h1v-1h1v-1h-1v-2h1v-1h2v1h3v-1h2v1h1v2h-1v1h1v1h1v1h1v1Z"/>
      <rect class="cls-1" x="28" y="29" width="2" height="1"/>
      <rect class="cls-1" x="3" y="29" width="2" height="1"/>
      <polygon class="cls-1" points="24 6 24 5 23 5 23 3 22 3 22 7 23 7 23 6 24 6"/>
      <polygon class="cls-1" points="25 7 26 7 26 6 26 5 26 4 25 4 25 5 25 6 24 6 24 7 25 7"/>
      <polygon class="cls-1" points="27 31 27 30 26 30 26 31 22 31 22 32 30 32 31 32 31 30 30 30 30 31 27 31"/>
      <rect class="cls-1" x="21" y="30" width="1" height="1"/>
      <rect class="cls-1" x="11" y="30" width="1" height="1"/>
      <polygon class="cls-1" points="7 30 6 30 6 31 3 31 3 30 2 30 2 32 3 32 11 32 11 31 7 31 7 30"/>
      <rect class="cls-1" x="2" y="1" width="1" height="1"/>
      <rect class="cls-1" x="1" y="2" width="1" height="2"/>
      <rect class="cls-1" y="4" width="1" height="2"/>
      <rect class="cls-1" x="10" y="4" width="1" height="2"/>
    </g>
  </g>
</svg>