<?xml version="1.0" encoding="UTF-8"?>
<svg id="Layer_2" data-name="Layer 2" xmlns="http://www.w3.org/2000/svg" viewBox="0 0 20 30">
  <defs>
    <style>
      .cls-1 {
        fill: #120224;
      }
    </style>
  </defs>
  <g id="Layer_1-2" data-name="Layer 1">
    <g>
      <rect class="cls-1" x="16" y="17" width="2" height="2"/>
      <rect class="cls-1" x="13" y="19" width="2" height="2"/>
      <polygon class="cls-1" points="8 20 8 18 6 18 6 16 4 16 4 18 2 18 2 20 4 20 4 22 6 22 6 20 8 20"/>
      <rect class="cls-1" y="1" width="1" height="28"/>
      <polygon class="cls-1" points="19 1 19 27 18 27 18 28 17 28 17 29 16 29 16 28 15 28 15 29 1 29 1 30 17 30 18 30 18 29 19 29 19 28 20 28 20 1 19 1"/>
      <rect class="cls-1" x="1" width="18" height="1"/>
      <rect class="cls-1" x="17" y="26" width="1" height="1"/>
      <rect class="cls-1" x="16" y="27" width="1" height="1"/>
      <rect class="cls-1" x="14" y="27" width="1" height="1"/>
      <rect class="cls-1" x="15" y="26" width="1" height="1"/>
      <rect class="cls-1" x="16" y="25" width="1" height="1"/>
      <rect class="cls-1" x="8" y="23" width="1" height="1"/>
      <rect class="cls-1" x="7" y="24" width="1" height="1"/>
      <rect class="cls-1" x="11" y="23" width="1" height="1"/>
      <rect class="cls-1" x="10" y="24" width="1" height="1"/>
      <path class="cls-1" d="M16,14h1v-1h1V3h-1v-1H3v1h-1v12h14v-1ZM3,7h1v1h-1v-1ZM5,13V4h10v9H5Z"/>
    </g>
  </g>
</svg>