<?xml version="1.0" encoding="UTF-8"?>
<svg id="Layer_2" data-name="Layer 2" xmlns="http://www.w3.org/2000/svg" viewBox="0 0 24 27">
  <defs>
    <style>
      .cls-1 {
        fill: #120224;
      }
    </style>
  </defs>
  <g id="Layer_1-2" data-name="Layer 1">
    <g>
      <rect class="cls-1" x="4" y="9" width="1" height="1"/>
      <rect class="cls-1" x="6" y="9" width="1" height="1"/>
      <rect class="cls-1" x="8" y="9" width="1" height="1"/>
      <rect class="cls-1" x="10" y="9" width="1" height="1"/>
      <rect class="cls-1" x="12" y="9" width="1" height="1"/>
      <rect class="cls-1" x="14" y="9" width="1" height="1"/>
      <rect class="cls-1" x="5" y="10" width="1" height="1"/>
      <rect class="cls-1" x="7" y="10" width="1" height="1"/>
      <rect class="cls-1" x="9" y="10" width="1" height="1"/>
      <rect class="cls-1" x="11" y="10" width="1" height="1"/>
      <rect class="cls-1" x="13" y="10" width="1" height="1"/>
      <rect class="cls-1" x="15" y="10" width="1" height="1"/>
      <rect class="cls-1" x="4" y="11" width="1" height="1"/>
      <rect class="cls-1" x="6" y="11" width="1" height="1"/>
      <rect class="cls-1" x="8" y="11" width="1" height="1"/>
      <rect class="cls-1" x="10" y="11" width="1" height="1"/>
      <rect class="cls-1" x="12" y="11" width="1" height="1"/>
      <rect class="cls-1" x="14" y="11" width="1" height="1"/>
      <rect class="cls-1" x="5" y="12" width="1" height="1"/>
      <rect class="cls-1" x="7" y="12" width="1" height="1"/>
      <rect class="cls-1" x="9" y="12" width="1" height="1"/>
      <rect class="cls-1" x="11" y="12" width="1" height="1"/>
      <rect class="cls-1" x="13" y="12" width="1" height="1"/>
      <rect class="cls-1" x="15" y="12" width="1" height="1"/>
      <rect class="cls-1" x="4" y="13" width="1" height="1"/>
      <rect class="cls-1" x="6" y="13" width="1" height="1"/>
      <rect class="cls-1" x="8" y="13" width="1" height="1"/>
      <rect class="cls-1" x="10" y="13" width="1" height="1"/>
      <rect class="cls-1" x="12" y="13" width="1" height="1"/>
      <rect class="cls-1" x="14" y="13" width="1" height="1"/>
      <rect class="cls-1" x="5" y="14" width="1" height="1"/>
      <rect class="cls-1" x="7" y="14" width="1" height="1"/>
      <rect class="cls-1" x="9" y="14" width="1" height="1"/>
      <rect class="cls-1" x="11" y="14" width="1" height="1"/>
      <rect class="cls-1" x="13" y="14" width="1" height="1"/>
      <rect class="cls-1" x="15" y="14" width="1" height="1"/>
      <rect class="cls-1" x="4" y="15" width="1" height="1"/>
      <rect class="cls-1" x="6" y="15" width="1" height="1"/>
      <rect class="cls-1" x="8" y="15" width="1" height="1"/>
      <rect class="cls-1" x="10" y="15" width="1" height="1"/>
      <rect class="cls-1" x="12" y="15" width="1" height="1"/>
      <rect class="cls-1" x="14" y="15" width="1" height="1"/>
      <rect class="cls-1" x="5" y="16" width="1" height="1"/>
      <rect class="cls-1" x="7" y="16" width="1" height="1"/>
      <rect class="cls-1" x="9" y="16" width="1" height="1"/>
      <rect class="cls-1" x="11" y="16" width="1" height="1"/>
      <rect class="cls-1" x="13" y="16" width="1" height="1"/>
      <rect class="cls-1" x="15" y="16" width="1" height="1"/>
      <rect class="cls-1" x="4" y="17" width="1" height="1"/>
      <rect class="cls-1" x="6" y="17" width="1" height="1"/>
      <rect class="cls-1" x="8" y="17" width="1" height="1"/>
      <rect class="cls-1" x="10" y="17" width="1" height="1"/>
      <rect class="cls-1" x="12" y="17" width="1" height="1"/>
      <rect class="cls-1" x="14" y="17" width="1" height="1"/>
      <rect class="cls-1" x="5" y="18" width="1" height="1"/>
      <rect class="cls-1" x="7" y="18" width="1" height="1"/>
      <rect class="cls-1" x="9" y="18" width="1" height="1"/>
      <rect class="cls-1" x="11" y="18" width="1" height="1"/>
      <rect class="cls-1" x="13" y="18" width="1" height="1"/>
      <rect class="cls-1" x="15" y="18" width="1" height="1"/>
      <path class="cls-1" d="M3,7h-1v14h16V7H3ZM17,9h-1v1h1v1h-1v1h1v1h-1v1h1v1h-1v1h1v1h-1v1h1v1h-1v1h-1v-1h-1v1h-1v-1h-1v1h-1v-1h-1v1h-1v-1h-1v1h-1v-1h-1v1h-1v-1h-1v1h-1v-1h1v-1h-1v-1h1v-1h-1v-1h1v-1h-1v-1h1v-1h-1v-1h1v-1h-1v-1h1v-1h1v1h1v-1h1v1h1v-1h1v1h1v-1h1v1h1v-1h1v1h1v-1h1v1h1v-1h1v1Z"/>
      <rect class="cls-1" y="6" width="1" height="18"/>
      <polygon class="cls-1" points="20 6 19 6 19 24 1 24 1 25 2 25 2 26 3 26 3 25 17 25 17 26 18 26 18 25 19 25 20 25 20 24 21 24 21 23 20 23 20 6"/>
      <polygon class="cls-1" points="23 1 23 0 6 0 6 1 22 1 22 2 23 2 23 21 24 21 24 1 23 1"/>
      <polygon class="cls-1" points="19 5 3 5 3 4 2 4 2 5 1 5 1 6 19 6 19 5"/>
      <rect class="cls-1" x="3" y="26" width="14" height="1"/>
      <rect class="cls-1" x="3" y="3" width="1" height="1"/>
      <rect class="cls-1" x="4" y="2" width="1" height="1"/>
      <rect class="cls-1" x="5" y="1" width="1" height="1"/>
      <rect class="cls-1" x="19" y="4" width="1" height="1"/>
      <rect class="cls-1" x="22" y="21" width="1" height="1"/>
      <rect class="cls-1" x="16" y="22" width="1" height="1"/>
      <rect class="cls-1" x="21" y="22" width="1" height="1"/>
      <rect class="cls-1" x="20" y="3" width="1" height="1"/>
      <rect class="cls-1" x="21" y="2" width="1" height="1"/>
    </g>
  </g>
</svg>