<?xml version="1.0" encoding="UTF-8"?>
<svg id="Layer_2" data-name="Layer 2" xmlns="http://www.w3.org/2000/svg" viewBox="0 0 25 27">
  <defs>
    <style>
      .cls-1 {
        fill: #120224;
      }
    </style>
  </defs>
  <g id="Layer_1-2" data-name="Layer 1">
    <g>
      <rect class="cls-1" x="13" y="11" width="1" height="1"/>
      <rect class="cls-1" x="21" y="13" width="2" height="1"/>
      <path class="cls-1" d="M19,22h1v-1h-1v-1h-2v-1h3v-1h-3v-1h3v1h3v-1h-2v-3h-1v1h-1v1h-2v-1h1v-1h1v-1h-2v1h-5v-1h-1v-2h2v-5h2v1h2v4h1v-2h1v-2h1v3h-1v1h-1v1h1v1h1v-1h2v-1h-1v-5h-1V1h-1v1h-1v1h-1v-1h-1v-1h-3V0h-7v1h-3v1h1v1h2v1h1v1h-3v1h-1v1h-1v1h-1v1h3v1h3v1h-3v2h-1v2h1v-1h3v1h-2v1h-1v1h2v-1h2v-1h4v1h-4v1h-2v1h1v2h1v-1h2v1h-1v1h1v1h-2v-1h-1v-1h-1v1h-2v-1h-1v2H1v2H0v3h3v-1h2v-1h-1v-1h-1v-1h1v1h1v-1h1v-1h1v1h-1v1h-1v1h2v-1h3v-1h1v-1h1v-1h5v1h1v1h1v-1ZM10,5v-3h1v1h1v1h-1v1h-1ZM16,17v2h-3v-3h1v-1h1v1h1v1Z"/>
      <rect class="cls-1" x="23" y="14" width="1" height="3"/>
      <polygon class="cls-1" points="4 18 4 17 2 17 2 18 2 20 3 20 3 18 4 18"/>
      <polygon class="cls-1" points="23 20 23 21 22 21 22 23 22 24 21 24 21 23 21 22 20 22 20 23 19 23 19 24 18 24 18 23 17 23 17 25 18 25 18 26 19 26 19 27 21 27 21 26 22 26 22 25 23 25 23 24 24 24 24 23 25 23 25 20 23 20"/>
    </g>
  </g>
</svg>